<?xml version="1.0" encoding="iso-8859-1"?>
<!-- Uploaded to: SVG Repo, www.svgrepo.com, Generator: SVG Repo Mixer Tools -->
<svg fill="#000000" height="800px" width="800px" version="1.1" id="Layer_1" xmlns="http://www.w3.org/2000/svg" xmlns:xlink="http://www.w3.org/1999/xlink" 
	 viewBox="0 0 242.132 242.132" xml:space="preserve">
<path id="XMLID_238_" d="M237.738,216.525L89.246,68.033l42.426-42.426c4.29-4.29,5.573-10.742,3.252-16.347
	C132.602,3.655,127.132,0,121.065,0H15C6.716,0,0,6.716,0,15v106.066c0,6.067,3.655,11.537,9.26,13.858
	c1.856,0.769,3.805,1.142,5.737,1.142c3.904,0,7.741-1.524,10.61-4.394l42.427-42.427l148.492,148.492
	c2.929,2.929,6.768,4.394,10.606,4.394c3.839,0,7.678-1.464,10.607-4.394C243.596,231.88,243.596,222.383,237.738,216.525z M30,30
	h54.853L57.429,57.424c0,0.001-0.001,0.001-0.002,0.002c-0.001,0.001-0.002,0.002-0.003,0.002L30,84.853V30z"/>
</svg>